<svg xmlns="http://www.w3.org/2000/svg" width="56" height="56" viewBox="0 0 100 100"><rect width="100" height="100" rx="20" fill="#5a5a5a"></rect><path fill="#fff" d="M36.91 54.59L36.91 81.41L29.35 81.41L29.35 18.59L52.20 18.59Q60.94 18.59 65.53 23.36Q70.12 28.13 70.12 36.68L70.12 36.68Q70.12 44.33 66.16 48.92Q62.20 53.51 54.64 54.23L54.64 54.23L70.66 81.41L62.20 81.41L46.90 54.59L36.91 54.59ZM36.91 48.20L52.03 48.20Q56.80 48.20 59.45 45.81Q62.11 43.43 62.11 39.02L62.11 39.02L62.11 34.34Q62.11 29.93 59.45 27.55Q56.80 25.16 52.03 25.16L52.03 25.16L36.91 25.16L36.91 48.20Z"></path></svg>